<svg xmlns="http://www.w3.org/2000/svg" viewBox="0 0 111.4 147.2"><g id="Layer_2" data-name="Layer 2"><g id="Layer_2-2" data-name="Layer 2"><path d="M3.1,120.4l44.2-18.3s10.6,15.6,17.8,20.1,16.1,6.4,21.3,5.9-40.8,17.5-40.8,17.5-12.8,1.8-20-2.6S13.8,137.1,3.1,120.4Z" fill="#fff"/><path d="M57.1,6.2,68.9,1.3S74.5.4,79,1.8s17.6,4.3,27.8,23c1.4,2.7.8,1.6.8,1.6L64.1,45s-4.9-8.5-7.2-10.8S46.4,25,46.4,25s.6-5.3,2.5-8.4A41.1,41.1,0,0,1,57.1,6.2Z" fill="#bbbdbf"/><path d="M50.3,57.8l31-12.3s9.7,4.6,13.2,9.4,15.4,16.4,15,31.7,2.3,15.8-7.3,31.5-33.4,6.6-33.4,6.6l-3.7-2.5V102L60.9,88.9l8.3-3.8,5.2-1.8s-15.2-10.4-19-15.1C53.5,65.9,50.3,57.8,50.3,57.8Z" fill="#bbbdbf"/><path d="M16.2,22.1,56.5,5.4l-3.8,5.7L47.1,22.3l-1.3,7.8L46,45.4s5.7,17.9,9.4,22.8,19,15.1,19,15.1L30.1,101.7S11.4,91.8,5.4,74.5-3.4,39.8,16.2,22.1Z" fill="#fff"/><path d="M60.9,88.9l.9,2.1a32.9,32.9,0,0,1,1.6,4.4,50.8,50.8,0,0,1,1.7,26.8" fill="none" stroke="#231f20" stroke-miterlimit="10" stroke-width="2"/><path d="M92.7,125.9h-.1" fill="none" stroke="#231f20" stroke-miterlimit="10" stroke-width="2"/><line x1="48.3" y1="144.2" x2="92.6" y2="125.9" fill="none" stroke="#231f20" stroke-miterlimit="10" stroke-width="2"/><path d="M50.5,58.2,81.3,45.5a43.4,43.4,0,0,1,13.2,9.4,56.7,56.7,0,0,1,11.6,17.7c.6,1.5,1.1,3,1.6,4.5,6.7,21.1.5,42.2-15,48.8h-.1c-8.8,3.6-18.7,2-27.5-3.7-7-4.4-17.8-20.1-17.8-20.1L3.1,120.4c10,19.8,29.5,30.3,45.2,23.8" fill="none" stroke="#231f20" stroke-miterlimit="10" stroke-width="2"/><path d="M90.6,6.6h0" fill="none" stroke="#231f20" stroke-miterlimit="10" stroke-width="2"/><path d="M63.1,2.9,18.8,21.3h0C3.2,27.8-3.1,49,3.7,70.1c.5,1.4,1.1,2.9,1.7,4.4A55.9,55.9,0,0,0,16.9,92.2a43.2,43.2,0,0,0,13.2,9.5L64.9,87.2l9.5-3.9a43.4,43.4,0,0,1-13.2-9.4A55,55,0,0,1,50.3,57.8l-.7-1.6c-.6-1.5-1.1-3-1.6-4.5a51.8,51.8,0,0,1-1.7-26.8" fill="none" stroke="#231f20" stroke-miterlimit="10" stroke-width="2"/><path d="M63.1,2.9l3-1c8-2.2,16.7-.3,24.5,4.7a52.4,52.4,0,0,1,17.8,20.1L92.3,33.4,64.1,45A50.4,50.4,0,0,0,46.4,25h-.1c2.3-10.2,8.1-18.4,16.8-22l1.5-.5,1.5-.5,1.7-.4,1.1-.2,2.3-.2" fill="none" stroke="#231f20" stroke-miterlimit="10" stroke-width="2"/></g></g></svg>